<?xml version="1.0" encoding="UTF-8"?>
<svg id="Capa_3" data-name="Capa 3" xmlns="http://www.w3.org/2000/svg" version="1.1" viewBox="0 0 203.6 79.4">
  <defs>
    <style>
      .cls-1 {
        fill: #ff6d00;
      }

      .cls-1, .cls-2, .cls-3, .cls-4 {
        stroke-width: 0px;
      }

      .cls-2 {
        fill: #1565c0;
      }

      .cls-3 {
        fill: #505759;
      }

      .cls-4 {
        fill: #fff;
      }
    </style>
  </defs>
  <g>
    <path class="cls-2" d="M56.7,53.1v-6.7h13.4v-3.3h-13.4v-16.7h20.1v6.7h-13.4v3.3h13.4v16.7h-20.1Z"/>
    <path class="cls-2" d="M80.1,53.1v-16.7h13.4v-3.3h-13.4v-6.7h20.1v26.7h-20.1ZM93.5,46.4v-3.3h-6.7v3.3h6.7Z"/>
    <path class="cls-2" d="M103.5,53.1V16.3h13.4v6.7h-6.7v3.3h6.7v6.7h-6.7v20.1h-6.7Z"/>
    <path class="cls-2" d="M120.3,53.1v-26.7h20.1v16.7h-13.4v3.3h13.4v6.7h-20.1ZM133.6,36.4v-3.3h-6.7v3.3h6.7Z"/>
    <path class="cls-2" d="M150.3,53.1v-20.1h-6.7v-6.7h6.7v-10h6.7v10h6.7v6.7h-6.7v20.1h-6.7Z"/>
    <path class="cls-2" d="M167.1,63.1v-6.7h13.4v-3.3h-13.4v-26.7h6.7v20.1h6.7v-20.1h6.7v36.8h-20.1Z"/>
  </g>
  <g>
    <path class="cls-3" d="M125.7,57.3h-2.3v5.8h-1v-5.8h-2.3v-.8h5.5v.8Z"/>
    <path class="cls-3" d="M133.3,56.4h4v.8h-3.1v2h2.8v.8h-2.8v2.1h3.1v.8h-4.1v-6.7Z"/>
    <path class="cls-3" d="M150.4,62.7c-.2.1-.5.2-.8.3-.3,0-.6,0-1,0s-.8,0-1.2-.2c-.4-.1-.7-.3-1-.6s-.5-.6-.7-1c-.2-.4-.2-.9-.2-1.5s0-1.1.3-1.5c.2-.4.4-.8.7-1s.6-.5,1-.6c.4-.1.7-.2,1.1-.2s.7,0,1,0c.3,0,.5,0,.7.2l-.2.8c-.3-.1-.8-.2-1.4-.2s-.5,0-.8.1-.5.2-.7.4c-.2.2-.4.5-.5.8-.1.3-.2.7-.2,1.2s0,.8.2,1.1c.1.3.3.6.5.8.2.2.4.4.7.5.3.1.6.2.9.2s.6,0,.8,0,.4-.1.6-.2l.2.7Z"/>
    <path class="cls-3" d="M162.7,60.1h-3.4v3h-1v-6.7h1v2.9h3.4v-2.9h1v6.7h-1v-3Z"/>
  </g>
  <rect class="cls-1" x="16.5" y="16.3" width="36.7" height="36.7" rx="5.9" ry="5.9"/>
  <g>
    <g>
      <path class="cls-4" d="M44.1,38.2c-.2-3.1-2.1-6-4.8-7.5.3-2.7-1.8-5.1-4.5-5.1-2.7,0-4.9,2.4-4.5,5.1-2.7,1.5-4.6,4.4-4.8,7.5h-1.5v5.2h2.4l2,2.9h12.8l2-2.9h2.4v-5.2h-1.5ZM34.8,26.8c1.8,0,3.3,1.5,3.3,3.3-.2,4.4-6.4,4.4-6.6,0,0-1.8,1.5-3.3,3.3-3.3ZM36.9,34.2v4h-4.1v-4c1.2.6,2.9.6,4.1,0ZM40.6,44.9h-11.5l-1.1-1.6h13.8l-1.1,1.6ZM44.4,42.1h-19.1v-2.6h1.5c-.2-3.1,1.3-5.9,3.9-7.5.2.5.5.9.9,1.3v6.2h6.6v-6.2c.4-.4.7-.8.9-1.3,2.6,1.6,4.1,4.5,3.9,7.5h1.5v2.6Z"/>
      <path class="cls-4" d="M34.8,32c1,0,1.9-.9,1.9-1.9-.1-2.5-3.7-2.5-3.8,0,0,1,.9,1.9,1.9,1.9ZM34.8,29.5c.3,0,.6.3.6.6,0,.8-1.2.8-1.3,0,0-.3.3-.6.6-.6Z"/>
    </g>
    <g>
      <polygon class="cls-4" points="43 36.2 42.4 35.1 46.3 32.9 46.3 27.7 47.6 27.7 47.6 33.6 43 36.2"/>
      <path class="cls-4" d="M46.9,28c-1.3,0-2.4-1.1-2.4-2.4s1.1-2.4,2.4-2.4,2.4,1.1,2.4,2.4-1.1,2.4-2.4,2.4ZM46.9,24.5c-.6,0-1.1.5-1.1,1.1s.5,1.1,1.1,1.1,1.1-.5,1.1-1.1-.5-1.1-1.1-1.1Z"/>
    </g>
    <g>
      <polygon class="cls-4" points="26.7 36.3 22.1 33.8 22.1 27.8 23.4 27.8 23.4 33 27.3 35.2 26.7 36.3"/>
      <path class="cls-4" d="M22.7,28.1c-1.3,0-2.4-1.1-2.4-2.4s1.1-2.4,2.4-2.4,2.4,1.1,2.4,2.4-1.1,2.4-2.4,2.4ZM22.7,24.6c-.6,0-1.1.5-1.1,1.1s.5,1.1,1.1,1.1,1.1-.5,1.1-1.1-.5-1.1-1.1-1.1Z"/>
    </g>
  </g>
</svg>