<?xml version="1.0" encoding="UTF-8"?>
<svg id="Layer_1" data-name="Layer 1" xmlns="http://www.w3.org/2000/svg" version="1.1" viewBox="0 0 618.84588 172.77532">
  <defs>
    <style>
      .cls-1 {
        fill: none;
      }

      .cls-1, .cls-2, .cls-3, .cls-4, .cls-5 {
        stroke-width: 0px;
      }

      .cls-2 {
        fill: #236cbc;
      }

      .cls-3 {
        fill: #ec7733;
      }

      .cls-4 {
        fill: #252d3d;
      }

      .cls-5 {
        fill: #fff;
      }
    </style>
  </defs>
  <g>
    <path class="cls-4" d="M19.81086,135.11865c2.18292,0,4.22008.16303,6.11249.48707,1.89139.32454,3.72895.90202,5.51216,1.7309l-1.09146,5.9139c-1.60189-.65518-3.20226-1.16409-4.80263-1.52825-1.60189-.36314-3.31146-.54598-5.13022-.54598-1.96504,0-3.72996.27375-5.29376.82025-1.56482.54751-2.9021,1.36826-4.01134,2.46125-1.11025,1.094-1.96504,2.47953-2.56537,4.1571s-.90049,3.62737-.90049,5.85143c0,4.12053,1.05489,7.23747,3.16569,9.35182,2.10979,2.11486,5.27497,3.1723,9.49607,3.1723.87307,0,1.75477-.06298,2.64663-.19097.89135-.12697,1.70042-.30016,2.42874-.51856v-10.75107h6.87636v14.84417c-1.71058.72832-3.72031,1.30985-6.03021,1.74664-2.31091.43679-4.61166.65467-6.90378.65467-3.02044,0-5.72192-.44593-8.10444-1.33677-2.38354-.89135-4.41206-2.14635-6.08506-3.76602-1.67401-1.61815-2.9473-3.54712-3.82037-5.7849-.87358-2.23727-1.30985-4.72086-1.30985-7.44926,0-2.87366.44491-5.50302,1.33677-7.88605.89135-2.38303,2.19156-4.4207,3.90214-6.11249,1.71007-1.69179,3.7838-3.00164,6.22168-3.92956,2.43738-.92792,5.22063-1.39163,8.35026-1.39163Z"/>
    <path class="cls-4" d="M87.57815,135.14964h22.59802v6.27121h-14.68908v9.09557h14.01085v6.27068h-14.01085v9.71754h14.85837v6.27068h-22.76731v-37.62568Z"/>
    <path class="cls-4" d="M190.42704,161.76059c0,1.60007-.32732,3.07225-.98196,4.41655-.65413,1.34582-1.57266,2.50845-2.75356,3.49041-1.18191.98146-2.60893,1.7447-4.28055,2.29023-1.67264.54503-3.52695.81754-5.56243.81754-1.92688,0-3.8629-.20959-5.80754-.62673-1.94515-.41765-3.73501-1.02662-5.37111-1.82691l1.58129-5.83494c1.30878.61861,2.77183,1.14537,4.38965,1.5818,1.61732.43592,3.28082.65413,4.99.65413,1.81727,0,3.29909-.37249,4.44395-1.11797,1.14537-.74447,1.7178-1.82691,1.7178-3.24428,0-1.30878-.54554-2.38056-1.6361-3.21739-1.09056-.83581-2.7632-1.70867-5.01689-2.61755-1.60007-.65413-3.01744-1.33618-4.25314-2.04512-1.23621-.70843-2.27247-1.49959-3.10828-2.37194-.83683-.87235-1.48183-1.84467-1.93602-2.91747-.4547-1.07179-.68154-2.28059-.68154-3.62591,0-3.34426,1.13573-5.91665,3.4082-7.71615,2.27146-1.7995,5.31681-2.69926,9.13403-2.69926,1.96291,0,3.76242.18218,5.39851.54503,1.63559.36386,3.21739.94593,4.74387,1.7452l-1.41738,5.83494c-1.27325-.6181-2.60893-1.11797-4.00803-1.49959-1.40012-.38213-2.82714-.57294-4.28105-.57294-1.60007,0-2.89007.29992-3.87152.89975s-1.47218,1.53613-1.47218,2.80836c0,.58207.0817,1.09056.24511,1.52699.16391.43643.46383.84495.89975,1.22707.43643.38162,1.00886.76324,1.7178,1.14486s1.60869.80942,2.69926,1.28137c1.45391.61861,2.84439,1.27325,4.17195,1.96342,1.32654.69067,2.4988,1.49096,3.5168,2.39934,1.01749.90889,1.83554,1.96291,2.45415,3.16258.6176,1.19967.92716,2.58152.92716,4.14454Z"/>
    <path class="cls-4" d="M274.45089,135.14964v6.27121h-10.39523v31.35447h-7.90946v-31.35447h-10.39471v-6.27121h28.69941Z"/>
    <path class="cls-4" d="M366.31095,153.96274c0,2.58152-.40902,5.00827-1.22707,7.27972-.81805,2.27247-1.99945,4.26279-3.5442,5.97094-1.54577,1.70917-3.45438,3.06312-5.72583,4.06233-2.27247.99972-4.86262,1.49959-7.77045,1.49959-2.90884,0-5.4995-.49986-7.77096-1.49959-2.27247-.99922-4.19022-2.35316-5.75273-4.06233-1.56353-1.70816-2.74544-3.69847-3.54471-5.97094-.79978-2.27146-1.19967-4.6982-1.19967-7.27972,0-2.54448.39989-4.96259,1.19967-7.25283.79927-2.29023,1.98118-4.28917,3.54471-5.99835,1.56251-1.70816,3.48026-3.0621,5.75273-4.06233,2.27146-.99972,4.86211-1.49959,7.77096-1.49959,2.90783,0,5.49798.49986,7.77045,1.49959,2.27146,1.00023,4.18007,2.35417,5.72583,4.06233,1.54475,1.70917,2.72615,3.70812,3.5442,5.99835.81805,2.29023,1.22707,4.70835,1.22707,7.25283ZM348.04339,166.77698c1.78073,0,3.33461-.32681,4.66217-.98146,1.32654-.65413,2.43486-1.55389,3.3265-2.69926.89011-1.14486,1.55389-2.4988,1.99031-4.06233.43592-1.56251.65413-3.25291.65413-5.07119,0-1.81777-.21821-3.50817-.65413-5.0717-.43643-1.56251-1.1002-2.91696-1.99031-4.06233-.89163-1.14537-1.99996-2.04512-3.3265-2.69926-1.32755-.65413-2.88144-.98146-4.66217-.98146-1.78174,0-3.33614.32732-4.66268.98146-1.32755.65413-2.43588,1.55389-3.3265,2.69926-.89113,1.14537-1.55389,2.49982-1.99031,4.06233-.43592,1.56353-.65413,3.25393-.65413,5.0717,0,1.81828.21821,3.50868.65413,5.07119.43643,1.56353,1.09919,2.91747,1.99031,4.06233.89062,1.14537,1.99894,2.04512,3.3265,2.69926,1.32654.65464,2.88093.98146,4.66268.98146Z"/>
    <path class="cls-4" d="M448.86583,146.61847c0,2.67452-.75393,4.92475-2.2597,6.7507-1.50681,1.82753-3.6724,3.23024-6.49728,4.2092l12.71171,15.19696h-9.83005l-10.90364-13.728h-2.54255v13.728h-7.90894v-37.62568h11.24223c2.33488,0,4.48154.23606,6.4405.70609,1.95791.4716,3.64401,1.18663,5.05619,2.14718,1.4127.96003,2.51416,2.15612,3.3049,3.58723.79126,1.43163,1.18663,3.10721,1.18663,5.02832ZM440.95637,146.78776c0-1.92111-.75393-3.31384-2.2597-4.18081-1.50681-.86592-3.46578-1.29914-5.87532-1.29914h-3.27703v11.75063h2.37326c2.71132,0,4.89531-.52681,6.55301-1.58147,1.65718-1.05414,2.48577-2.61774,2.48577-4.68921Z"/>
  </g>
  <path class="cls-2" d="M120.80435,32.17875l16.3993-19.44569,8.79315,8.5713-18.75499,17.17168-6.43746-6.2973Z"/>
  <g>
    <path class="cls-2" d="M45.26714,32.31047c-11.92152,0-20.71877,6.11722-28.19405,13.67688h-.6366l-1.40605-11.76697H0v78.17639h18.4108v-53.3173c7.1612-7.24548,12.37574-10.98524,20.08869-10.98524,10.53005,0,14.57198,5.73413,14.57198,18.27526v46.02728h18.4108v-48.42116c0-20.14024-8.14375-31.66513-26.21513-31.66513Z"/>
    <path class="cls-2" d="M145.9968,85.07573c-6.95963,8.45073-12.25902,11.53718-19.59492,11.53718-10.6894,0-14.6146-5.83492-14.6146-18.27478v-46.02766h-18.41118v48.42106c0,20.14024,8.02741,31.66522,26.15715,31.66522,11.64622,0,20.30985-5.78241,27.70028-14.32961h.63699l1.40644,12.4197h15.13102V32.31047h-18.41118v52.76526Z"/>
    <path class="cls-2" d="M230.01546,97.73262c-14.91678,0-25.30592-10.02083-25.30592-25.28086,0-15.35746,10.54426-25.47678,25.84499-25.47678,6.84482,0,12.80347,2.58001,18.8512,7.35203l8.48509-11.26389c-6.33224-6.12039-15.97727-10.75265-28.20211-10.75265-23.30972,0-43.38689,14.62919-43.38689,40.14129,0,25.31571,18.18004,39.945,42.15323,39.945,10.85104,0,22.00925-3.95352,30.86064-11.58719l-7.52097-11.47641c-5.8761,4.54395-13.07877,8.39947-21.77926,8.39947Z"/>
    <path class="cls-2" d="M338.78867,97.63375c-7.75672,0-13.81904-3.89113-13.81904-14.15798V0h-43.7601v14.33508h25.65685v68.20192c0,18.8607,9.55288,29.85976,27.49678,29.85976,8.98424,0,14.2222-1.56492,21.78272-4.36666l-4.20588-13.38008c-4.93501,2.06022-9.17123,2.98374-13.15134,2.98374Z"/>
    <path class="cls-2" d="M417.39428,32.31047c-20.43886,0-39.35456,15.03868-39.35456,39.9449,0,25.41362,18.37624,40.14139,41.75929,40.14139,11.21312,0,21.76544-3.69982,29.91265-9.01687l-6.14794-11.13421c-6.8406,3.8967-13.42126,6.23855-21.41105,6.23855-14.19493,0-24.23967-6.77321-26.21091-20.8999h56.08593c.31101-1.96395.79287-5.44721.79287-9.02878,0-21.12759-12.63376-36.24508-35.42629-36.24508ZM417.93336,46.12451c10.85335,0,17.69855,6.31861,18.86694,18.77104h-40.54023c2.41356-12.2858,11.01115-18.77104,21.67329-18.77104Z"/>
  </g>
  <path class="cls-2" d="M501.40197,60.83559c-6.35754,6.35803-6.35754,16.66583,0,23.02216,6.35724,6.35803,16.66547,6.35803,23.02258,0,6.35767-6.35632,6.35767-16.66412.00085-23.02216-6.35797-6.35718-16.6662-6.35718-23.02344,0Z"/>
  <path class="cls-2" d="M495.91496,148.70168c-2.92525-.63437-5.81081,1.22198-6.44463,4.14609-.63454,2.92396,1.22175,5.80927,4.14577,6.4441,2.9235.63491,5.80899-1.2215,6.44463-4.14609.63389-2.92382-1.22233-5.80914-4.14577-6.4441Z"/>
  <g>
    <path class="cls-1" d="M593.13848,56.76697c-.57446-.02948-1.1507-.08618-1.72723-.15717.57666.07098,1.15277.12769,1.72723.15717Z"/>
    <path class="cls-1" d="M594.3828,56.7998c.13995,0,.2785-.01147.41815-.01392-.51489.00891-1.03113.00824-1.54932-.01593.37775.01764.75519.02985,1.13116.02985Z"/>
    <path class="cls-1" d="M581.54815,26.68994c.05457-.12476.11554-.24487.17334-.36737-.05786.12256-.11871.24249-.17334.36737Z"/>
    <path class="cls-1" d="M600.76855,55.94617c-.56946.1546-1.14618.28564-1.72736.39899.58124-.11334,1.15784-.24438,1.72736-.39899Z"/>
    <path class="cls-1" d="M582.12902,25.52203c.07239-.1308.14667-.26007.22284-.38788-.07623.12793-.15039.25696-.22284.38788Z"/>
    <path class="cls-1" d="M602.45391,55.41779c-.49054.17194-.987.3277-1.48853.46832.50153-.14069.99792-.29639,1.48853-.46832Z"/>
    <path class="cls-1" d="M596.63116,56.6828c-.38428.03571-.7699.06317-1.1571.08063.38733-.01746.77271-.04486,1.1571-.08063Z"/>
    <path class="cls-1" d="M598.52355,56.4317c-.41315.07141-.8277.13629-1.24536.1864.41779-.05011.83215-.11499,1.24536-.1864Z"/>
    <path class="cls-1" d="M582.82934,24.39111c.07495-.10919.14709-.22089.22485-.32758-.07782.10681-.1499.2182-.22485.32758Z"/>
    <path class="cls-1" d="M590.38201,18.89502c.13843-.04126.27759-.07996.41736-.117-.13989.03711-.27881.07568-.41736.117Z"/>
    <path class="cls-1" d="M589.20653,19.29919c.11658-.04639.23572-.08588.35358-.12909-.11792.04327-.23694.0827-.35358.12909Z"/>
    <path class="cls-1" d="M588.01263,19.83783c.02448-.01245.04761-.02734.07214-.03967-.02454.01233-.04767.02722-.07214.03967Z"/>
    <path class="cls-1" d="M604.10577,54.76709c-.36511.15845-.73541.30493-1.10809.4455.3728-.14062.7428-.28705,1.10809-.4455Z"/>
    <path class="cls-1" d="M591.63171,18.58588c.13055-.02625.26025-.05524.39166-.07776-.13153.02252-.26105.05151-.39166.07776Z"/>
    <path class="cls-1" d="M583.80395,23.1178c.00995-.01141.01868-.02405.02869-.0354-.01001.01141-.01874.02399-.02869.0354Z"/>
    <path class="cls-1" d="M584.69622,22.1889c.09277-.0885.19019-.17133.28528-.25714-.09515.08582-.19238.16858-.28528.25714Z"/>
    <path class="cls-1" d="M586.68481,20.61676c.10931-.07172.21698-.14606.32819-.21472-.11133.06873-.21875.14294-.32819.21472Z"/>
    <path class="cls-1" d="M585.64104,21.37006c.11292-.08984.22729-.17773.34283-.26398-.11566.08636-.2298.17395-.34283.26398Z"/>
    <path class="cls-1" d="M596.17907,7.89105c.1012.00757.20258.01929.30383.02814-.10138-.00885-.20258-.02057-.30383-.02814Z"/>
    <path class="cls-1" d="M592.69799,7.88202c.16412-.01129.32861-.01984.49329-.02777-.16467.00793-.3291.01654-.49329.02777Z"/>
    <path class="cls-1" d="M593.14239,18.36194c.03882-.00342.0769-.01062.11578-.01373-.03888.00311-.0769.01025-.11578.01373Z"/>
    <path class="cls-1" d="M591.36596,8.00787c.14569-.01807.29236-.03088.43854-.04633-.14624.01544-.29285.02826-.43854.04633Z"/>
    <path class="cls-1" d="M594.3634,7.81946c-.10083,0-.20068.00775-.30139.00897.14917-.00183.2984-.00403.44788-.00317-.04871-.00031-.09784-.0058-.14648-.0058Z"/>
    <path class="cls-1" d="M590.05767,8.20331c.04718-.00848.09503-.01392.14233-.02209-.0473.00824-.09515.01367-.14233.02209Z"/>
    <path class="cls-1" d="M585.76714,9.38867c.15112-.05676.30322-.11078.45551-.16455-.15228.05383-.30438.10773-.45551.16455Z"/>
    <path class="cls-1" d="M588.37853,8.57263c.13037-.03296.25977-.06921.39075-.10004-.13104.03088-.26038.06708-.39075.10004Z"/>
    <path class="cls-1" d="M584.54601,9.88269c.12756-.05591.25732-.10687.3858-.16058-.1286.05371-.25818.10468-.3858.16058Z"/>
    <path class="cls-1" d="M587.03228,8.95398c.15308-.04816.30603-.09644.46014-.14166-.15417.04517-.30701.09344-.46014.14166Z"/>
    <path class="cls-1" d="M605.72765,53.98907c-.34021.17816-.6842.34882-1.03241.51086.34833-.16211.69208-.33264,1.03241-.51086Z"/>
    <path class="cls-1" d="M611.9052,49.39362c-.28345.29059-.57581.57086-.87244.84613.29669-.27533.58893-.55542.87244-.84613Z"/>
    <path class="cls-1" d="M609.25262,51.75616c-.4696.35883-.9538.69678-1.44702,1.02014.49329-.32343.97742-.66132,1.44702-1.02014Z"/>
    <path class="cls-1" d="M610.61535,50.6283c-.41632.36865-.84326.72388-1.28235,1.06232.43915-.3385.86603-.69366,1.28235-1.06232Z"/>
    <path class="cls-1" d="M607.3557,53.05499c-.35114.21948-.70544.43341-1.06696.63483.36157-.20148.71576-.41528,1.06696-.63483Z"/>
    <path class="cls-1" d="M615.58788,44.53656c-.30389.52899-.63007,1.04016-.96924,1.53986.33917-.49969.66528-1.0108.96924-1.53986Z"/>
    <path class="cls-1" d="M613.12157,48.04517c-.24915.29688-.50458.58734-.7666.87085.26208-.28363.51733-.57385.7666-.87085Z"/>
    <path class="cls-1" d="M599.96569,8.47778c.12402.02924.24799.06085.37195.09204-.12402-.03125-.2478-.06281-.37195-.09204Z"/>
    <path class="cls-1" d="M598.01763,8.10193c.08917.01355.17822.02374.26746.03827-.08923-.01453-.17822-.02472-.26746-.03827Z"/>
    <path class="cls-1" d="M614.28155,46.54608c-.23969.33557-.48395.66687-.73901.9881.25513-.32135.49933-.6524.73901-.9881Z"/>
    <path class="cls-1" d="M590.98687,56.55328c-.58154-.08203-1.16339-.17749-1.74469-.30292.58118.12543,1.16302.22089,1.74469.30292Z"/>
    <path class="cls-1" d="M592.95751,46.23181c-.14557-.01489-.2912-.03253-.43689-.05212.14587.01959.2912.03723.43689.05212Z"/>
    <path class="cls-1" d="M594.23217,46.3078c-.12555-.00128-.25177-.01025-.37769-.01495.12604.00476.25208.01367.37769.01495Z"/>
    <path class="cls-1" d="M597.10625,18.58606c.13153.02637.26306.04913.39453.07941-.13153-.03027-.26294-.05304-.39453-.07941Z"/>
    <path class="cls-1" d="M591.63183,46.02899c-.13177-.02643-.26355-.04926-.39526-.07959.13177.0304.26337.05316.39526.07959Z"/>
    <path class="cls-1" d="M600.65923,44.8183c-.44519.224-.90491.41833-1.37189.59393.4671-.17566.92664-.36987,1.37189-.59393Z"/>
    <path class="cls-1" d="M597.30889,45.98535c-.31921.06885-.64117.1261-.96576.17255.32483-.04651.6463-.10364.96576-.17255Z"/>
    <path class="cls-1" d="M595.79253,46.22943c-.34991.03589-.7027.05341-1.0567.06262.35419-.00922.7066-.02673,1.0567-.06262Z"/>
    <path class="cls-1" d="M546.11822,54.64923c-.05847-.12469-.12817-.24286-.18787-.36682.05975.12396.12939.24213.18787.36682Z"/>
    <path class="cls-1" d="M598.83337,45.56396c-.32495.10962-.6524.21155-.98535.2973.33313-.08582.66028-.18756.98535-.2973Z"/>
    <path class="cls-1" d="M594.50835,18.30829c.12402.00122.24872.01013.37305.01471-.12439-.00458-.2489-.01349-.37305-.01471Z"/>
    <path class="cls-1" d="M595.78069,18.38361c.14587.01489.29175.03265.43774.05225-.14612-.01959-.29175-.03735-.43774-.05225Z"/>
    <path class="cls-1" d="M547.20782,57.20135c-.10748-.27826-.23682-.54523-.35028-.82043.11346.27521.2428.54211.35028.82043Z"/>
    <path class="cls-2" d="M560.86584,60.38025l-.31799.17993-.23273.1322c-1.3418.76099-2.54022,1.46912-3.66449,2.16492.14075.64575.27423,1.29474.38751,1.95239,4.18201,24.27814-12.1673,47.43195-36.44543,51.61395h-.00024l.00006.00049c-3.31519.57123-5.53979,3.7218-4.96875,7.03705.57111,3.31543,3.72156,5.54004,7.03687,4.96912.00006,0,.00018,0,.00024-.00006,30.89844-5.32239,51.70624-34.79028,46.38391-65.68872-.34308-1.99158-.79028-3.93927-1.32788-5.84271-.94769.43701-1.98767.91858-2.97705,1.41565-1.21606.61237-2.48071,1.28668-3.87402,2.0658Z"/>
    <path class="cls-2" d="M552.5396,44.08002l.2049-.09015.13074-.05762c1.33459-.59924,2.5603-1.17908,3.72046-1.75922,1.00751-.51178,1.9826-1.04584,3.12958-1.67798.07916-.04419.15991-.09204.23901-.13635-12.17975-17.79431-34.00488-27.89459-56.60822-24.0011-3.31537.57111-5.5401,3.72174-4.96906,7.03711.57111,3.31537,3.72156,5.54004,7.03693,4.96912.00006,0,.00018-.00006.00024-.00006,17.09198-2.94415,33.61682,4.29633,43.36688,17.30676.01251-.005.0257-.01001.03815-.01501,1.19214-.48035,2.44427-1.01215,3.71039-1.5755Z"/>
    <path class="cls-5" d="M594.50988,7.82526c.55469.0033,1.11127.02411,1.66919.0658-.55792-.04169-1.11432-.06244-1.66919-.0658Z"/>
    <path class="cls-5" d="M581.72149,26.32257c.12854-.27228.26331-.53992.40753-.80054-.14429.26074-.27893.5282-.40753.80054Z"/>
    <path class="cls-5" d="M596.4829,7.91919c.51099.04462,1.02277.10516,1.53473.18274-.51202-.07758-1.02368-.13812-1.53473-.18274Z"/>
    <path class="cls-5" d="M593.19128,7.85425c.28955-.01398.57983-.02216.87073-.02582-.29095.0036-.58118.01184-.87073.02582Z"/>
    <path class="cls-5" d="M599.28735,45.41223c-.14929.05609-.30273.10071-.45398.15173.15137-.05115.3045-.09552.45398-.15173Z"/>
    <path class="cls-5" d="M600.33764,8.56982c.57281.14423,1.14502.30225,1.71466.48993-.56976-.18774-1.14185-.3457-1.71466-.48993Z"/>
    <path class="cls-5" d="M614.61864,46.07642c-.10858.15997-.22504.31281-.3371.46967.11206-.15698.22845-.30963.3371-.46967Z"/>
    <path class="cls-5" d="M590.79937,18.77801c.27496-.07288.55267-.13599.83234-.19214-.27979.05615-.55731.1192-.83234.19214Z"/>
    <path class="cls-5" d="M594.37127,18.30286c-.37292,0-.74414.01569-1.1131.04535.41394-.03326.83136-.04407,1.25018-.03992-.04559-.00043-.09155-.00543-.13708-.00543Z"/>
    <path class="cls-5" d="M598.28509,8.1402c.56055.09125,1.12091.20587,1.6806.33759-.55981-.13177-1.12006-.24628-1.6806-.33759Z"/>
    <path class="cls-5" d="M544.86748,52.20489c-.00244-.00446-.00543-.00867-.00787-.01312.00012.00018.00037.00067.00049.00085.00232.00415.00513.00812.00739.01227Z"/>
    <path class="cls-5" d="M592.02337,18.50812c.36993-.06329.74304-.11279,1.11902-.14618-.37604.03345-.74902.08289-1.11902.14618Z"/>
    <path class="cls-5" d="M584.93182,9.72211c.27655-.1156.55457-.22797.83533-.33344-.28082.10553-.55872.21783-.83533.33344Z"/>
    <path class="cls-5" d="M583.05419,24.06354c.23804-.32654.48651-.64362.74976-.94574-.26331.30219-.51172.61908-.74976.94574Z"/>
    <path class="cls-5" d="M597.84801,45.86127c-.17841.0459-.3587.08521-.53912.12408.18066-.03894.36047-.07806.53912-.12408Z"/>
    <path class="cls-5" d="M586.22265,9.22412c.26819-.09479.53809-.18469.80963-.27014-.27161.08545-.54144.17535-.80963.27014Z"/>
    <path class="cls-5" d="M613.54253,47.53418c-.13745.17316-.27924.3421-.42096.51099.14185-.16901.28345-.33771.42096-.51099Z"/>
    <path class="cls-5" d="M583.35967,10.43744c.39001-.19623.78638-.37952,1.18634-.55475-.40002.17523-.79633.35852-1.18634.55475Z"/>
    <path class="cls-5" d="M582.35186,25.13415c.15149-.25409.31146-.50116.47748-.74304-.16602.24207-.32593.48883-.47748.74304Z"/>
    <path class="cls-5" d="M587.49242,8.81232c.2934-.08606.58923-.16455.88611-.23969-.29688.07513-.59265.15363-.88611.23969Z"/>
    <path class="cls-5" d="M590.2,8.18121c.3866-.06696.77527-.12488,1.16595-.17334-.39069.0484-.77936.10632-1.16595.17334Z"/>
    <path class="cls-5" d="M583.83263,23.0824c.27417-.31262.56451-.60834.86359-.89349-.29913.28522-.58936.58075-.86359.89349Z"/>
    <path class="cls-5" d="M591.8045,7.96155c.29694-.03137.5946-.05902.89349-.07953-.29889.02045-.59644.04816-.89349.07953Z"/>
    <path class="cls-5" d="M588.76928,8.47259c.42657-.10046.85577-.19165,1.28839-.26929-.43262.07764-.86182.16882-1.28839.26929Z"/>
    <path class="cls-5" d="M594.8814,18.323c.29919.01099.59894.02997.89929.06061-.30048-.03064-.59998-.04962-.89929-.06061Z"/>
    <path class="cls-5" d="M591.23656,45.9494c-.42188-.09735-.84326-.20923-1.26239-.34772.41919.13855.84052.25037,1.26239.34772Z"/>
    <path class="cls-5" d="M599.04119,56.34515c-.17145.03345-.34534.05676-.51764.08655.17242-.02979.34613-.0531.51764-.08655Z"/>
    <path class="cls-5" d="M597.27819,56.6181c-.21497.02582-.43103.04462-.64703.0647.21606-.02014.43195-.03888.64703-.0647Z"/>
    <path class="cls-5" d="M597.50079,18.66547c.42163.09723.8429.20892,1.26184.34735-.41901-.13849-.84015-.25012-1.26184-.34735Z"/>
    <path class="cls-5" d="M592.52062,46.17969c-.2962-.03986-.59259-.09125-.88879-.1507.29639.05945.59241.11084.88879.1507Z"/>
    <path class="cls-5" d="M600.96538,55.88611c-.0661.01855-.13055.04205-.19684.06006.06628-.01801.13074-.0415.19684-.06006Z"/>
    <path class="cls-5" d="M587.01299,20.40204c.32587-.20105.65869-.39044.99963-.56421-.341.17383-.67371.3631-.99963.56421Z"/>
    <path class="cls-5" d="M593.25164,56.76996c-.03784-.00177-.07538-.00104-.11316-.00299.03784.00195.07532.00122.11316.00299Z"/>
    <path class="cls-5" d="M602.99767,55.21258c-.18134.06836-.36084.14105-.54376.2052.18304-.06415.36237-.13678.54376-.2052Z"/>
    <path class="cls-5" d="M593.85448,46.29285c-.2984-.01117-.59735-.03033-.89697-.06104.29968.0307.59845.04987.89697.06104Z"/>
    <path class="cls-5" d="M591.41125,56.6098c-.14142-.01746-.28284-.03656-.42438-.05652.14154.01996.28284.03906.42438.05652Z"/>
    <path class="cls-5" d="M594.37487,46.31341c.12128,0,.24005-.01819.36096-.02136-.16809.00439-.3349.01746-.50366.01575.04749.00049.09528.00562.1427.00562Z"/>
    <path class="cls-5" d="M595.47405,56.76343c-.22406.01007-.44818.01862-.6731.02246.22504-.00385.44891-.01239.6731-.02246Z"/>
    <path class="cls-5" d="M585.98388,21.10608c.22858-.17072.46277-.33307.70093-.48932-.23822.15631-.47223.31848-.70093.48932Z"/>
    <path class="cls-5" d="M611.03277,50.23975c-.13934.12933-.27527.26263-.41742.38855.14221-.12592.27802-.25916.41742-.38855Z"/>
    <path class="cls-5" d="M596.34313,46.1579c-.18311.02618-.36609.05255-.5506.07153.18475-.01892.36725-.04529.5506-.07153Z"/>
    <path class="cls-5" d="M584.9815,21.93176c.21478-.19385.43384-.38208.65955-.56171-.22577.17975-.4447.36786-.65955.56171Z"/>
    <path class="cls-5" d="M609.333,51.69061c-.02734.02106-.05292.04456-.08038.06555.02747-.02094.05298-.04443.08038-.06555Z"/>
    <path class="cls-5" d="M589.56011,19.1701c.27112-.09949.54474-.19238.8219-.27509-.27728.08276-.55072.17554-.8219.27509Z"/>
    <path class="cls-5" d="M612.35497,48.91602c-.14856.16077-.29724.32123-.44977.4776.15259-.15649.30115-.31671.44977-.4776Z"/>
    <path class="cls-5" d="M596.21844,18.43585c.29596.03967.59186.09088.88782.15021-.29602-.05927-.59174-.11053-.88782-.15021Z"/>
    <path class="cls-5" d="M588.08477,19.79816c.36572-.18372.74115-.34766,1.12177-.49896-.38062.15131-.75598.31525-1.12177.49896Z"/>
    <path class="cls-5" d="M604.69524,54.49994c-.19562.09106-.39154.18127-.58948.26715.19812-.08594.39374-.17603.58948-.26715Z"/>
    <path class="cls-5" d="M581.07391,27.91333c.13885-.41998.30054-.82593.47424-1.22339-.17377.39752-.33539.80334-.47424,1.22339Z"/>
    <path class="cls-5" d="M607.80559,52.77631c-.14758.09674-.30029.18512-.44989.27869.14966-.09363.30225-.18182.44989-.27869Z"/>
    <path class="cls-5" d="M606.28875,53.68982c-.18524.10321-.37329.20087-.5611.29926.18793-.09845.37573-.19604.5611-.29926Z"/>
    <path id="circle111038" class="cls-2" d="M603.97173,35.48808c1.72646-5.22169-1.10746-10.85218-6.3289-12.57796-5.21961-1.72571-10.85042,1.10757-12.57652,6.32818-1.72506,5.22108,1.10822,10.85189,6.3289,12.57796,5.22082,1.72474,10.85164-1.10854,12.57652-6.32818Z"/>
  </g>
  <path class="cls-3" d="M594.36712,7.82843c-13.51923,0-24.4787,10.95947-24.4787,24.4787,0,2.39899.3512,4.71478.99445,6.90564-4.06873,2.76971-8.30731,5.28119-12.70679,7.48938-3.63074,1.79688-7.36322,3.3634-11.16101,4.7486-7.03412-11.45483-19.67407-19.09692-34.10175-19.09692-7.98718,0-15.4209,2.35065-21.66541,6.38452-3.62451-3.28223-9.22198-9.35559-11.37579-11.89923-.86133-1.02887-1.67841-2.09308-2.45673-3.18512,2.05939-2.2215,3.43091-5.11151,3.70966-8.36359.66217-7.75647-5.08759-14.57965-12.84149-15.23907-.42285-.03613-.8396-.05298-1.255-.05121-7.22321.01697-13.35767,5.55927-13.98395,12.89258-.33087,3.87555.93964,7.52032,3.26331,10.27783.84149.99854,1.82294,1.88385,2.9162,2.61621,1.92114,1.29572,4.19043,2.13129,6.66205,2.34503,2.94073.25006,5.74493-.42487,8.13226-1.77783.97314.98193,1.9104,1.99921,2.80237,3.0564,2.09412,2.48596,7.1579,8.85791,9.75916,12.8504-8.36829,7.33044-13.65979,18.08716-13.65979,30.08624,0,17.43872,11.16541,32.2619,26.73413,37.73285-.20532,4.41095-.94177,9.9845-1.61877,13.13947-1.31482,5.96381-3.25159,11.76764-5.75726,17.3291-5.25354.97498-9.67084,4.99841-10.87897,10.54828-.7962,3.6897-.02936,7.35126,1.86481,10.29547,1.17102,1.82025,2.77484,3.36249,4.69708,4.46301,1.1842.68933,2.49622,1.1972,3.90247,1.50714,7.38251,1.59729,14.66412-3.08734,16.26556-10.46429.30621-1.41168.38214-2.81244.25146-4.1795-.20459-2.20557-.94904-4.30066-2.12012-6.12097-.93054-1.44653-2.133-2.71484-3.55072-3.72925.04102-6.11646,1.08191-12.14642,2.00085-18.20044.73932-4.87067,2.70605-9.84277,3.91229-12.55975,1.40997.15045,2.84045.23206,4.29034.23206,22.08765,0,39.99323-17.90552,39.99323-39.99316,0-4.08258-.6153-8.02081-1.75208-11.73102,3.49762-2.2691,7.10773-4.36621,10.84772-6.229,4.55127-2.26276,9.25769-4.1969,14.07483-5.81775,4.48364,5.03918,11.01434,8.21667,18.2901,8.21667,13.51923,0,24.47876-10.95953,24.47876-24.47876s-10.95953-24.4787-24.47876-24.4787ZM475.11358,14.77698c-.38123,4.43317-4.28058,7.71899-8.71417,7.3432-.26978-.02301-.54083-.05957-.80298-.10846-4.02045-.75342-6.89313-4.44183-6.54016-8.60571.37872-4.43604,4.27814-7.72192,8.71417-7.34314.87756.07501,1.70892.28711,2.4743.61871,3.11414,1.32568,5.16974,4.53961,4.86884,8.0954ZM502.40319,155.65521c-.91516,4.21674-5.07666,6.90149-9.29675,5.98102-1.18945-.25806-2.25018-.76727-3.14978-1.46399-2.28839-1.78906-3.49017-4.79688-2.8313-7.83289.45856-2.11267,1.72461-3.83606,3.40485-4.91705,1.68549-1.08429,3.78461-1.52582,5.89197-1.06396,2.10931.45331,3.83606,1.72516,4.92035,3.41058.47266.73468.82483,1.5545,1.03351,2.41345.26166,1.10706.28534,2.28345.02716,3.47284ZM512.91332,97.54016c-13.89154,0-25.19318-11.30164-25.19318-25.19318s11.30164-25.19318,25.19318-25.19318,25.19324,11.30164,25.19324,25.19318-11.30164,25.19318-25.19324,25.19318ZM594.36712,46.28589c-7.70789,0-13.9787-6.27081-13.9787-13.97876s6.27081-13.9787,13.9787-13.9787,13.97876,6.27081,13.97876,13.9787-6.27087,13.97876-13.97876,13.97876Z"/>
  <path class="cls-2" d="M467.57199,8.38231c-3.15267-.26945-5.9266,2.06808-6.19564,5.22091-.26932,3.1526,2.06816,5.92649,5.22088,6.19569,3.15259.26904,5.92652-2.06845,6.19568-5.22092.26932-3.15284-2.06817-5.92677-5.22092-6.19568Z"/>
</svg>