<?xml version="1.0" encoding="UTF-8"?>
<svg id="Layer_1" data-name="Layer 1" xmlns="http://www.w3.org/2000/svg" version="1.1" viewBox="0 0 618.8 172.8">
  <defs>
    <style>
      .cls-1 {
        fill: none;
      }

      .cls-1, .cls-2, .cls-3, .cls-4, .cls-5 {
        stroke-width: 0px;
      }

      .cls-2 {
        fill: #236cbc;
      }

      .cls-3 {
        fill: #ec7733;
      }

      .cls-4 {
        fill: #252d3d;
      }

      .cls-5 {
        fill: #fff;
      }
    </style>
  </defs>
  <g>
    <path class="cls-4" d="M19.8,135.1c2.2,0,4.2.2,6.1.5,1.9.3,3.7.9,5.5,1.7l-1.1,5.9c-1.6-.7-3.2-1.2-4.8-1.5-1.6-.4-3.3-.5-5.1-.5s-3.7.3-5.3.8c-1.6.5-2.9,1.4-4,2.5-1.1,1.1-2,2.5-2.6,4.2s-.9,3.6-.9,5.9c0,4.1,1.1,7.2,3.2,9.4,2.1,2.1,5.3,3.2,9.5,3.2s1.8,0,2.6-.2c.9-.1,1.7-.3,2.4-.5v-10.8h6.9v14.8c-1.7.7-3.7,1.3-6,1.7-2.3.4-4.6.7-6.9.7s-5.7-.4-8.1-1.3c-2.4-.9-4.4-2.1-6.1-3.8-1.7-1.6-2.9-3.5-3.8-5.8-.9-2.2-1.3-4.7-1.3-7.4s.4-5.5,1.3-7.9c.9-2.4,2.2-4.4,3.9-6.1,1.7-1.7,3.8-3,6.2-3.9,2.4-.9,5.2-1.4,8.4-1.4Z"/>
    <path class="cls-4" d="M87.6,135.1h22.6v6.3h-14.7v9.1h14v6.3h-14v9.7h14.9v6.3h-22.8v-37.6Z"/>
    <path class="cls-4" d="M190.4,161.8c0,1.6-.3,3.1-1,4.4-.7,1.3-1.6,2.5-2.8,3.5-1.2,1-2.6,1.7-4.3,2.3-1.7.5-3.5.8-5.6.8s-3.9-.2-5.8-.6c-1.9-.4-3.7-1-5.4-1.8l1.6-5.8c1.3.6,2.8,1.1,4.4,1.6,1.6.4,3.3.7,5,.7s3.3-.4,4.4-1.1c1.1-.7,1.7-1.8,1.7-3.2s-.5-2.4-1.6-3.2c-1.1-.8-2.8-1.7-5-2.6-1.6-.7-3-1.3-4.3-2-1.2-.7-2.3-1.5-3.1-2.4-.8-.9-1.5-1.8-1.9-2.9-.5-1.1-.7-2.3-.7-3.6,0-3.3,1.1-5.9,3.4-7.7,2.3-1.8,5.3-2.7,9.1-2.7s3.8.2,5.4.5c1.6.4,3.2.9,4.7,1.7l-1.4,5.8c-1.3-.6-2.6-1.1-4-1.5-1.4-.4-2.8-.6-4.3-.6s-2.9.3-3.9.9-1.5,1.5-1.5,2.8,0,1.1.2,1.5c.2.4.5.8.9,1.2.4.4,1,.8,1.7,1.1s1.6.8,2.7,1.3c1.5.6,2.8,1.3,4.2,2,1.3.7,2.5,1.5,3.5,2.4,1,.9,1.8,2,2.5,3.2.6,1.2.9,2.6.9,4.1Z"/>
    <path class="cls-4" d="M274.5,135.1v6.3h-10.4v31.4h-7.9v-31.4h-10.4v-6.3h28.7Z"/>
    <path class="cls-4" d="M366.3,154c0,2.6-.4,5-1.2,7.3-.8,2.3-2,4.3-3.5,6-1.5,1.7-3.5,3.1-5.7,4.1-2.3,1-4.9,1.5-7.8,1.5s-5.5-.5-7.8-1.5c-2.3-1-4.2-2.4-5.8-4.1-1.6-1.7-2.7-3.7-3.5-6-.8-2.3-1.2-4.7-1.2-7.3s.4-5,1.2-7.3c.8-2.3,2-4.3,3.5-6,1.6-1.7,3.5-3.1,5.8-4.1,2.3-1,4.9-1.5,7.8-1.5s5.5.5,7.8,1.5c2.3,1,4.2,2.4,5.7,4.1,1.5,1.7,2.7,3.7,3.5,6,.8,2.3,1.2,4.7,1.2,7.3ZM348,166.8c1.8,0,3.3-.3,4.7-1,1.3-.7,2.4-1.6,3.3-2.7.9-1.1,1.6-2.5,2-4.1.4-1.6.7-3.3.7-5.1s-.2-3.5-.7-5.1c-.4-1.6-1.1-2.9-2-4.1-.9-1.1-2-2-3.3-2.7-1.3-.7-2.9-1-4.7-1s-3.3.3-4.7,1c-1.3.7-2.4,1.6-3.3,2.7-.9,1.1-1.6,2.5-2,4.1-.4,1.6-.7,3.3-.7,5.1s.2,3.5.7,5.1c.4,1.6,1.1,2.9,2,4.1.9,1.1,2,2,3.3,2.7,1.3.7,2.9,1,4.7,1Z"/>
    <path class="cls-4" d="M448.9,146.6c0,2.7-.8,4.9-2.3,6.8-1.5,1.8-3.7,3.2-6.5,4.2l12.7,15.2h-9.8l-10.9-13.7h-2.5v13.7h-7.9v-37.6h11.2c2.3,0,4.5.2,6.4.7,2,.5,3.6,1.2,5.1,2.1,1.4,1,2.5,2.2,3.3,3.6.8,1.4,1.2,3.1,1.2,5ZM441,146.8c0-1.9-.8-3.3-2.3-4.2-1.5-.9-3.5-1.3-5.9-1.3h-3.3v11.8h2.4c2.7,0,4.9-.5,6.6-1.6,1.7-1.1,2.5-2.6,2.5-4.7Z"/>
  </g>
  <path class="cls-2" d="M120.8,32.2l16.4-19.4,8.8,8.6-18.8,17.2-6.4-6.3Z"/>
  <g>
    <path class="cls-2" d="M45.3,32.3c-11.9,0-20.7,6.1-28.2,13.7h-.6l-1.4-11.8H0v78.2h18.4v-53.3c7.2-7.2,12.4-11,20.1-11s14.6,5.7,14.6,18.3v46h18.4v-48.4c0-20.1-8.1-31.7-26.2-31.7Z"/>
    <path class="cls-2" d="M146,85.1c-7,8.5-12.3,11.5-19.6,11.5-10.7,0-14.6-5.8-14.6-18.3v-46h-18.4v48.4c0,20.1,8,31.7,26.2,31.7s20.3-5.8,27.7-14.3h.6l1.4,12.4h15.1V32.3h-18.4v52.8Z"/>
    <path class="cls-2" d="M230,97.7c-14.9,0-25.3-10-25.3-25.3s10.5-25.5,25.8-25.5,12.8,2.6,18.9,7.4l8.5-11.3c-6.3-6.1-16-10.8-28.2-10.8-23.3,0-43.4,14.6-43.4,40.1s18.2,39.9,42.2,39.9,22-4,30.9-11.6l-7.5-11.5c-5.9,4.5-13.1,8.4-21.8,8.4Z"/>
    <path class="cls-2" d="M338.8,97.6c-7.8,0-13.8-3.9-13.8-14.2V0h-43.8v14.3h25.7v68.2c0,18.9,9.6,29.9,27.5,29.9s14.2-1.6,21.8-4.4l-4.2-13.4c-4.9,2.1-9.2,3-13.2,3Z"/>
    <path class="cls-2" d="M417.4,32.3c-20.4,0-39.4,15-39.4,39.9s18.4,40.1,41.8,40.1,21.8-3.7,29.9-9l-6.1-11.1c-6.8,3.9-13.4,6.2-21.4,6.2-14.2,0-24.2-6.8-26.2-20.9h56.1c.3-2,.8-5.4.8-9,0-21.1-12.6-36.2-35.4-36.2ZM417.9,46.1c10.9,0,17.7,6.3,18.9,18.8h-40.5c2.4-12.3,11-18.8,21.7-18.8Z"/>
  </g>
  <path class="cls-2" d="M501.4,60.8c-6.4,6.4-6.4,16.7,0,23,6.4,6.4,16.7,6.4,23,0,6.4-6.4,6.4-16.7,0-23-6.4-6.4-16.7-6.4-23,0Z"/>
  <path class="cls-2" d="M495.9,148.7c-2.9-.6-5.8,1.2-6.4,4.1-.6,2.9,1.2,5.8,4.1,6.4,2.9.6,5.8-1.2,6.4-4.1.6-2.9-1.2-5.8-4.1-6.4Z"/>
  <g>
    <path class="cls-1" d="M593.1,56.8c-.6,0-1.2,0-1.7-.2.6,0,1.2.1,1.7.2Z"/>
    <path class="cls-1" d="M594.4,56.8c.1,0,.3,0,.4,0-.5,0-1,0-1.5,0,.4,0,.8,0,1.1,0Z"/>
    <path class="cls-1" d="M581.5,26.7c0-.1.1-.2.2-.4,0,.1-.1.2-.2.4Z"/>
    <path class="cls-1" d="M600.8,55.9c-.6.2-1.1.3-1.7.4.6-.1,1.2-.2,1.7-.4Z"/>
    <path class="cls-1" d="M582.1,25.5c0-.1.1-.3.2-.4,0,.1-.2.3-.2.4Z"/>
    <path class="cls-1" d="M602.5,55.4c-.5.2-1,.3-1.5.5.5-.1,1-.3,1.5-.5Z"/>
    <path class="cls-1" d="M596.6,56.7c-.4,0-.8,0-1.2,0,.4,0,.8,0,1.2,0Z"/>
    <path class="cls-1" d="M598.5,56.4c-.4,0-.8.1-1.2.2.4,0,.8-.1,1.2-.2Z"/>
    <path class="cls-1" d="M582.8,24.4c0-.1.1-.2.2-.3,0,.1-.1.2-.2.3Z"/>
    <path class="cls-1" d="M590.4,18.9c.1,0,.3,0,.4-.1-.1,0-.3,0-.4.1Z"/>
    <path class="cls-1" d="M589.2,19.3c.1,0,.2,0,.4-.1-.1,0-.2,0-.4.1Z"/>
    <path class="cls-1" d="M588,19.8s0,0,0,0c0,0,0,0,0,0Z"/>
    <path class="cls-1" d="M604.1,54.8c-.4.2-.7.3-1.1.4.4-.1.7-.3,1.1-.4Z"/>
    <path class="cls-1" d="M591.6,18.6c.1,0,.3,0,.4,0-.1,0-.3,0-.4,0Z"/>
    <path class="cls-1" d="M583.8,23.1s0,0,0,0c0,0,0,0,0,0Z"/>
    <path class="cls-1" d="M584.7,22.2c0,0,.2-.2.3-.3,0,0-.2.2-.3.3Z"/>
    <path class="cls-1" d="M586.7,20.6c.1,0,.2-.1.3-.2-.1,0-.2.1-.3.2Z"/>
    <path class="cls-1" d="M585.6,21.4c.1,0,.2-.2.3-.3-.1,0-.2.2-.3.3Z"/>
    <path class="cls-1" d="M596.2,7.9c.1,0,.2,0,.3,0-.1,0-.2,0-.3,0Z"/>
    <path class="cls-1" d="M592.7,7.9c.2,0,.3,0,.5,0-.2,0-.3,0-.5,0Z"/>
    <path class="cls-1" d="M593.1,18.4s0,0,.1,0c0,0,0,0-.1,0Z"/>
    <path class="cls-1" d="M591.4,8c.1,0,.3,0,.4,0-.1,0-.3,0-.4,0Z"/>
    <path class="cls-1" d="M594.4,7.8c-.1,0-.2,0-.3,0,.1,0,.3,0,.4,0,0,0,0,0-.1,0Z"/>
    <path class="cls-1" d="M590.1,8.2s0,0,.1,0c0,0,0,0-.1,0Z"/>
    <path class="cls-1" d="M585.8,9.4c.2,0,.3-.1.5-.2-.2,0-.3.1-.5.2Z"/>
    <path class="cls-1" d="M588.4,8.6c.1,0,.3,0,.4-.1-.1,0-.3,0-.4.1Z"/>
    <path class="cls-1" d="M584.5,9.9c.1,0,.3-.1.4-.2-.1,0-.3.1-.4.2Z"/>
    <path class="cls-1" d="M587,9c.2,0,.3,0,.5-.1-.2,0-.3,0-.5.1Z"/>
    <path class="cls-1" d="M605.7,54c-.3.2-.7.3-1,.5.3-.2.7-.3,1-.5Z"/>
    <path class="cls-1" d="M611.9,49.4c-.3.3-.6.6-.9.8.3-.3.6-.6.9-.8Z"/>
    <path class="cls-1" d="M609.3,51.8c-.5.4-1,.7-1.4,1,.5-.3,1-.7,1.4-1Z"/>
    <path class="cls-1" d="M610.6,50.6c-.4.4-.8.7-1.3,1.1.4-.3.9-.7,1.3-1.1Z"/>
    <path class="cls-1" d="M607.4,53.1c-.4.2-.7.4-1.1.6.4-.2.7-.4,1.1-.6Z"/>
    <path class="cls-1" d="M615.6,44.5c-.3.5-.6,1-1,1.5.3-.5.7-1,1-1.5Z"/>
    <path class="cls-1" d="M613.1,48c-.2.3-.5.6-.8.9.3-.3.5-.6.8-.9Z"/>
    <path class="cls-1" d="M600,8.5c.1,0,.2,0,.4,0-.1,0-.2,0-.4,0Z"/>
    <path class="cls-1" d="M598,8.1c0,0,.2,0,.3,0,0,0-.2,0-.3,0Z"/>
    <path class="cls-1" d="M614.3,46.5c-.2.3-.5.7-.7,1,.3-.3.5-.7.7-1Z"/>
    <path class="cls-1" d="M591,56.6c-.6,0-1.2-.2-1.7-.3.6.1,1.2.2,1.7.3Z"/>
    <path class="cls-1" d="M593,46.2c-.1,0-.3,0-.4,0,.1,0,.3,0,.4,0Z"/>
    <path class="cls-1" d="M594.2,46.3c-.1,0-.3,0-.4,0,.1,0,.3,0,.4,0Z"/>
    <path class="cls-1" d="M597.1,18.6c.1,0,.3,0,.4,0-.1,0-.3,0-.4,0Z"/>
    <path class="cls-1" d="M591.6,46c-.1,0-.3,0-.4,0,.1,0,.3,0,.4,0Z"/>
    <path class="cls-1" d="M600.7,44.8c-.4.2-.9.4-1.4.6.5-.2.9-.4,1.4-.6Z"/>
    <path class="cls-1" d="M597.3,46c-.3,0-.6.1-1,.2.3,0,.6-.1,1-.2Z"/>
    <path class="cls-1" d="M595.8,46.2c-.3,0-.7,0-1.1,0,.4,0,.7,0,1.1,0Z"/>
    <path class="cls-1" d="M546.1,54.6c0-.1-.1-.2-.2-.4,0,.1.1.2.2.4Z"/>
    <path class="cls-1" d="M598.8,45.6c-.3.1-.7.2-1,.3.3,0,.7-.2,1-.3Z"/>
    <path class="cls-1" d="M594.5,18.3c.1,0,.2,0,.4,0-.1,0-.2,0-.4,0Z"/>
    <path class="cls-1" d="M595.8,18.4c.1,0,.3,0,.4,0-.1,0-.3,0-.4,0Z"/>
    <path class="cls-1" d="M547.2,57.2c-.1-.3-.2-.5-.4-.8.1.3.2.5.4.8Z"/>
    <path class="cls-2" d="M560.9,60.4l-.3.2h-.2c-1.3.9-2.5,1.6-3.7,2.3.1.6.3,1.3.4,2,4.2,24.3-12.2,47.4-36.4,51.6h0,0c-3.3.6-5.5,3.7-5,7,.6,3.3,3.7,5.5,7,5,0,0,0,0,0,0,30.9-5.3,51.7-34.8,46.4-65.7-.3-2-.8-3.9-1.3-5.8-.9.4-2,.9-3,1.4-1.2.6-2.5,1.3-3.9,2.1Z"/>
    <path class="cls-2" d="M552.5,44.1h.2c0,0,.1-.1.1-.1,1.3-.6,2.6-1.2,3.7-1.8,1-.5,2-1,3.1-1.7,0,0,.2,0,.2-.1-12.2-17.8-34-27.9-56.6-24-3.3.6-5.5,3.7-5,7,.6,3.3,3.7,5.5,7,5,0,0,0,0,0,0,17.1-2.9,33.6,4.3,43.4,17.3,0,0,0,0,0,0,1.2-.5,2.4-1,3.7-1.6Z"/>
    <path class="cls-5" d="M594.5,7.8c.6,0,1.1,0,1.7,0-.6,0-1.1,0-1.7,0Z"/>
    <path class="cls-5" d="M581.7,26.3c.1-.3.3-.5.4-.8-.1.3-.3.5-.4.8Z"/>
    <path class="cls-5" d="M596.5,7.9c.5,0,1,.1,1.5.2-.5,0-1-.1-1.5-.2Z"/>
    <path class="cls-5" d="M593.2,7.9c.3,0,.6,0,.9,0-.3,0-.6,0-.9,0Z"/>
    <path class="cls-5" d="M599.3,45.4c-.1,0-.3.1-.5.2.2,0,.3,0,.5-.2Z"/>
    <path class="cls-5" d="M600.3,8.6c.6.1,1.1.3,1.7.5-.6-.2-1.1-.3-1.7-.5Z"/>
    <path class="cls-5" d="M614.6,46.1c-.1.2-.2.3-.3.5.1-.2.2-.3.3-.5Z"/>
    <path class="cls-5" d="M590.8,18.8c.3,0,.6-.1.8-.2-.3,0-.6.1-.8.2Z"/>
    <path class="cls-5" d="M594.4,18.3c-.4,0-.7,0-1.1,0,.4,0,.8,0,1.3,0,0,0,0,0-.1,0Z"/>
    <path class="cls-5" d="M598.3,8.1c.6,0,1.1.2,1.7.3-.6-.1-1.1-.2-1.7-.3Z"/>
    <path class="cls-5" d="M544.9,52.2s0,0,0,0c0,0,0,0,0,0,0,0,0,0,0,0Z"/>
    <path class="cls-5" d="M592,18.5c.4,0,.7-.1,1.1-.1-.4,0-.7,0-1.1.1Z"/>
    <path class="cls-5" d="M584.9,9.7c.3-.1.6-.2.8-.3-.3.1-.6.2-.8.3Z"/>
    <path class="cls-5" d="M583.1,24.1c.2-.3.5-.6.7-.9-.3.3-.5.6-.7.9Z"/>
    <path class="cls-5" d="M597.8,45.9c-.2,0-.4,0-.5.1.2,0,.4,0,.5-.1Z"/>
    <path class="cls-5" d="M586.2,9.2c.3,0,.5-.2.8-.3-.3,0-.5.2-.8.3Z"/>
    <path class="cls-5" d="M613.5,47.5c-.1.2-.3.3-.4.5.1-.2.3-.3.4-.5Z"/>
    <path class="cls-5" d="M583.4,10.4c.4-.2.8-.4,1.2-.6-.4.2-.8.4-1.2.6Z"/>
    <path class="cls-5" d="M582.4,25.1c.2-.3.3-.5.5-.7-.2.2-.3.5-.5.7Z"/>
    <path class="cls-5" d="M587.5,8.8c.3,0,.6-.2.9-.2-.3,0-.6.2-.9.2Z"/>
    <path class="cls-5" d="M590.2,8.2c.4,0,.8-.1,1.2-.2-.4,0-.8.1-1.2.2Z"/>
    <path class="cls-5" d="M583.8,23.1c.3-.3.6-.6.9-.9-.3.3-.6.6-.9.9Z"/>
    <path class="cls-5" d="M591.8,8c.3,0,.6,0,.9,0-.3,0-.6,0-.9,0Z"/>
    <path class="cls-5" d="M588.8,8.5c.4-.1.9-.2,1.3-.3-.4,0-.9.2-1.3.3Z"/>
    <path class="cls-5" d="M594.9,18.3c.3,0,.6,0,.9,0-.3,0-.6,0-.9,0Z"/>
    <path class="cls-5" d="M591.2,45.9c-.4,0-.8-.2-1.3-.3.4.1.8.3,1.3.3Z"/>
    <path class="cls-5" d="M599,56.3c-.2,0-.3,0-.5,0,.2,0,.3,0,.5,0Z"/>
    <path class="cls-5" d="M597.3,56.6c-.2,0-.4,0-.6,0,.2,0,.4,0,.6,0Z"/>
    <path class="cls-5" d="M597.5,18.7c.4,0,.8.2,1.3.3-.4-.1-.8-.3-1.3-.3Z"/>
    <path class="cls-5" d="M592.5,46.2c-.3,0-.6,0-.9-.2.3,0,.6.1.9.2Z"/>
    <path class="cls-5" d="M601,55.9c0,0-.1,0-.2,0,0,0,.1,0,.2,0Z"/>
    <path class="cls-5" d="M587,20.4c.3-.2.7-.4,1-.6-.3.2-.7.4-1,.6Z"/>
    <path class="cls-5" d="M593.3,56.8s0,0-.1,0c0,0,0,0,.1,0Z"/>
    <path class="cls-5" d="M603,55.2c-.2,0-.4.1-.5.2.2,0,.4-.1.5-.2Z"/>
    <path class="cls-5" d="M593.9,46.3c-.3,0-.6,0-.9,0,.3,0,.6,0,.9,0Z"/>
    <path class="cls-5" d="M591.4,56.6c-.1,0-.3,0-.4,0,.1,0,.3,0,.4,0Z"/>
    <path class="cls-5" d="M594.4,46.3c.1,0,.2,0,.4,0-.2,0-.3,0-.5,0,0,0,0,0,.1,0Z"/>
    <path class="cls-5" d="M595.5,56.8c-.2,0-.4,0-.7,0,.2,0,.4,0,.7,0Z"/>
    <path class="cls-5" d="M586,21.1c.2-.2.5-.3.7-.5-.2.2-.5.3-.7.5Z"/>
    <path class="cls-5" d="M611,50.2c-.1.1-.3.3-.4.4.1-.1.3-.3.4-.4Z"/>
    <path class="cls-5" d="M596.3,46.2c-.2,0-.4,0-.6,0,.2,0,.4,0,.6,0Z"/>
    <path class="cls-5" d="M585,21.9c.2-.2.4-.4.7-.6-.2.2-.4.4-.7.6Z"/>
    <path class="cls-5" d="M609.3,51.7s0,0,0,0c0,0,0,0,0,0Z"/>
    <path class="cls-5" d="M589.6,19.2c.3,0,.5-.2.8-.3-.3,0-.6.2-.8.3Z"/>
    <path class="cls-5" d="M612.4,48.9c-.1.2-.3.3-.4.5.2-.2.3-.3.4-.5Z"/>
    <path class="cls-5" d="M596.2,18.4c.3,0,.6,0,.9.2-.3,0-.6-.1-.9-.2Z"/>
    <path class="cls-5" d="M588.1,19.8c.4-.2.7-.3,1.1-.5-.4.2-.8.3-1.1.5Z"/>
    <path class="cls-5" d="M604.7,54.5c-.2,0-.4.2-.6.3.2,0,.4-.2.6-.3Z"/>
    <path class="cls-5" d="M581.1,27.9c.1-.4.3-.8.5-1.2-.2.4-.3.8-.5,1.2Z"/>
    <path class="cls-5" d="M607.8,52.8c-.1,0-.3.2-.4.3.1,0,.3-.2.4-.3Z"/>
    <path class="cls-5" d="M606.3,53.7c-.2.1-.4.2-.6.3.2,0,.4-.2.6-.3Z"/>
    <path id="circle111038" class="cls-2" d="M604,35.5c1.7-5.2-1.1-10.9-6.3-12.6-5.2-1.7-10.9,1.1-12.6,6.3-1.7,5.2,1.1,10.9,6.3,12.6,5.2,1.7,10.9-1.1,12.6-6.3Z"/>
  </g>
  <path class="cls-3" d="M594.4,7.8c-13.5,0-24.5,11-24.5,24.5s.4,4.7,1,6.9c-4.1,2.8-8.3,5.3-12.7,7.5-3.6,1.8-7.4,3.4-11.2,4.7-7-11.5-19.7-19.1-34.1-19.1s-15.4,2.4-21.7,6.4c-3.6-3.3-9.2-9.4-11.4-11.9-.9-1-1.7-2.1-2.5-3.2,2.1-2.2,3.4-5.1,3.7-8.4.7-7.8-5.1-14.6-12.8-15.2-.4,0-.8,0-1.3,0-7.2,0-13.4,5.6-14,12.9-.3,3.9.9,7.5,3.3,10.3.8,1,1.8,1.9,2.9,2.6,1.9,1.3,4.2,2.1,6.7,2.3,2.9.3,5.7-.4,8.1-1.8,1,1,1.9,2,2.8,3.1,2.1,2.5,7.2,8.9,9.8,12.9-8.4,7.3-13.7,18.1-13.7,30.1,0,17.4,11.2,32.3,26.7,37.7-.2,4.4-.9,10-1.6,13.1-1.3,6-3.3,11.8-5.8,17.3-5.3,1-9.7,5-10.9,10.5-.8,3.7,0,7.4,1.9,10.3,1.2,1.8,2.8,3.4,4.7,4.5,1.2.7,2.5,1.2,3.9,1.5,7.4,1.6,14.7-3.1,16.3-10.5.3-1.4.4-2.8.3-4.2-.2-2.2-.9-4.3-2.1-6.1-.9-1.4-2.1-2.7-3.6-3.7,0-6.1,1.1-12.1,2-18.2.7-4.9,2.7-9.8,3.9-12.6,1.4.2,2.8.2,4.3.2,22.1,0,40-17.9,40-40s-.6-8-1.8-11.7c3.5-2.3,7.1-4.4,10.8-6.2,4.6-2.3,9.3-4.2,14.1-5.8,4.5,5,11,8.2,18.3,8.2,13.5,0,24.5-11,24.5-24.5s-11-24.5-24.5-24.5ZM475.1,14.8c-.4,4.4-4.3,7.7-8.7,7.3-.3,0-.5,0-.8-.1-4-.8-6.9-4.4-6.5-8.6.4-4.4,4.3-7.7,8.7-7.3.9,0,1.7.3,2.5.6,3.1,1.3,5.2,4.5,4.9,8.1ZM502.4,155.7c-.9,4.2-5.1,6.9-9.3,6-1.2-.3-2.3-.8-3.1-1.5-2.3-1.8-3.5-4.8-2.8-7.8.5-2.1,1.7-3.8,3.4-4.9,1.7-1.1,3.8-1.5,5.9-1.1,2.1.5,3.8,1.7,4.9,3.4.5.7.8,1.6,1,2.4.3,1.1.3,2.3,0,3.5ZM512.9,97.5c-13.9,0-25.2-11.3-25.2-25.2s11.3-25.2,25.2-25.2,25.2,11.3,25.2,25.2-11.3,25.2-25.2,25.2ZM594.4,46.3c-7.7,0-14-6.3-14-14s6.3-14,14-14,14,6.3,14,14-6.3,14-14,14Z"/>
  <path class="cls-2" d="M467.6,8.4c-3.2-.3-5.9,2.1-6.2,5.2-.3,3.2,2.1,5.9,5.2,6.2,3.2.3,5.9-2.1,6.2-5.2.3-3.2-2.1-5.9-5.2-6.2Z"/>
</svg>